{"title":"Bourne Legacy(2012)MPEG-4[DaScubaDude]","uid":14354735,"size":1345255066,"categoryP":"video","categoryS":"movies","magnet":"?xt=urn:btih:757f571c770975b43be54d518104982099d48a1e&amp;dn=Bourne+Legacy%282012%29MPEG-4%5BDaScubaDude%5D&amp;tr=udp%3A%2F%2Ftracker.leechers-paradise.org%3A6969&amp;tr=udp%3A%2F%2Fzer0day.ch%3A1337&amp;tr=udp%3A%2F%2Fopen.demonii.com%3A1337&amp;tr=udp%3A%2F%2Ftracker.coppersurfer.tk%3A6969&amp;tr=udp%3A%2F%2Fexodus.desync.com%3A6969","seeders":0,"leechers":0,"uploader":"dascuba","files":1,"time":1461034726,"description":"The Bourne Legacy (2012)\r\nPG-13 | 2h 15min | Action, Adventure, Thriller | 10 August 2012 (USA)\r\nAn expansion of the universe from Robert Ludlum's novels, centered on a new hero whose stakes have been triggered by the events of the previous three films.\r\nDirector: Tony Gilroy\r\nWriters: Tony Gilroy (screenplay), Dan Gilroy (screenplay) |\r\nStars: Jeremy Renner, Rachel Weisz, Edward Norton | \r\n\r\nGeneral\r\nComplete name                            : BourneLegacyTHE_BOURNE_LEGACY_Title10.mp4\r\nFormat                                   : MPEG-4\r\nFormat profile                           : Base Media\r\nCodec ID                                 : isom\r\nFile size                                : 1.25 GiB\r\nDuration                                 : 2h 14mn\r\nOverall bit rate                         : 1 329 Kbps\r\nMovie name                               : THE_BOURNE_LEGACY\r\nGenre                                    : Spy_Film\r\nWriting application                      : Lavf54.6.100\r\n\r\nVideo\r\nID                                       : 1\r\nFormat                                   : AVC\r\nFormat/Info                              : Advanced Video Codec\r\nFormat profile                           :   \r\nFormat settings, CABAC                   : No\r\nFormat settings, ReFrames                : 6 frames\r\nCodec ID                                 : avc1\r\nCodec ID/Info                            : Advanced Video Coding\r\nDuration                                 : 2h 14mn\r\nBit rate                                 : 1 195 Kbps\r\nWidth                                    : 720 pixels\r\nHeight                                   : 404 pixels\r\nDisplay aspect ratio                     : 16:9\r\nFrame rate mode                          : Constant\r\nFrame rate                               : 29.970 fps\r\nColor space                              : YUV\r\nChroma subsampling                       : 4:2:0\r\nBit depth                                : 8 bits\r\nScan type                                : Progressive\r\nBits/(Pixel*Frame)                       : 0.137\r\nStream size                              : 1.13 GiB (90%)\r\n\r\nAudio\r\nID                                       : 2\r\nFormat                                   : AAC\r\nFormat/Info                              : Advanced Audio Codec\r\nFormat profile                           : LC\r\nCodec ID                                 : 40\r\nDuration                                 : 2h 14mn\r\nBit rate mode                            : Constant\r\nBit rate                                 : 128 Kbps\r\nChannel(s)                               : 2 channels\r\nChannel positions                        : Front: L R\r\nSampling rate                            : 44.1 KHz\r\nCompression mode                         : Lossy\r\nStream size                              : 123 MiB (10%)","torrent":{"xt":"urn:btih:757f571c770975b43be54d518104982099d48a1e","amp;dn":"Bourne+Legacy%282012%29MPEG-4%5BDaScubaDude%5D","amp;tr":["udp%3A%2F%2Ftracker.leechers-paradise.org%3A6969","udp%3A%2F%2Fzer0day.ch%3A1337","udp%3A%2F%2Fopen.demonii.com%3A1337","udp%3A%2F%2Ftracker.coppersurfer.tk%3A6969","udp%3A%2F%2Fexodus.desync.com%3A6969"],"infoHash":"757f571c770975b43be54d518104982099d48a1e","infoHashBuffer":{"type":"Buffer","data":[117,127,87,28,119,9,117,180,59,229,77,81,129,4,152,32,153,212,138,30]},"announce":[],"urlList":[]}}